<svg xmlns="http://www.w3.org/2000/svg" viewBox="0 0 54.757 54.757" fill="#C4E1FF">
	<path d="M27.557 12c-3.86 0-7 3.14-7 7s3.14 7 7 7 7-3.14 7-7-3.14-7-7-7zm0 12c-2.757 0-5-2.243-5-5s2.243-5 5-5 5 2.243 5 5-2.243 5-5 5z"/>
	<path d="M40.94 5.617C37.318 1.995 32.502 0 27.38 0c-5.123 0-9.938 1.995-13.56 5.617C7.117 12.32 6.284 24.93 12.016 32.57L27.38 54.756 42.72 32.6c5.756-7.67 4.923-20.28-1.78-26.983zm.16 25.814L27.38 51.244 13.64 31.4c-5.2-6.932-4.455-18.32 1.595-24.37C18.48 3.788 22.792 2 27.38 2s8.9 1.787 12.146 5.03c6.05 6.05 6.795 17.438 1.573 24.4z"/>
</svg>